<svg width="68" height="56" viewBox="0 0 68 56" fill="none" xmlns="http://www.w3.org/2000/svg">
<g clip-path="url(#clip0_106_1862)">
<path d="M21.7239 21.509C23.9825 27.2219 25.8761 35.6037 33.4945 35.6037H34.341L34.3811 35.9666H33.4945C21.3628 35.9666 18.3781 20.9809 14.7113 12.1474L10.3585 25.6778L3.58655 8.82937C3.14525 7.73679 2.379 6.47891 1.36802 5.87415H8.26029C7.33357 6.19669 6.92838 7.04737 6.92838 7.98272C6.92838 9.19626 10.88 18.5538 11.6824 20.497L14.5428 11.708C12.2119 6.44262 9.31139 0.241901 2.61971 0.241901C1.69298 0.241901 0.886608 0.322534 0.120354 0.52815L0 0.245932C1.00696 0.0403168 2.01392 0 3.02088 0C14.8717 0 18.4583 11.5024 21.5634 20.8599C22.2093 18.9569 25.7156 8.78906 25.7156 7.81742C25.7156 6.84579 25.0697 6.15637 24.2232 5.87415H28.6563C27.529 6.19669 26.2773 7.41426 25.9162 8.54716L21.7239 21.509Z" fill="#1D1D1B"/>
<path d="M32.8885 14.6913C32.8885 15.3404 33.0329 15.9895 33.6989 16.2194H30.3892C31.0752 15.9895 31.2196 15.3404 31.2196 14.6913V7.38998C31.2196 6.74088 31.0551 6.1966 30.3892 5.9668H33.6989C33.0329 6.1966 32.8885 6.74088 32.8885 7.38998V14.6913Z" fill="black"/>
<path d="M36.636 14.3367C36.636 15.2801 37.1575 15.905 38.0521 16.2195H35.1797C36.0743 15.905 36.4915 15.2559 36.4915 14.3367V7.97872C36.4915 7.07966 36.0743 6.28542 35.1797 5.97095H37.655L43.1913 13.2522V7.85374C43.1913 6.93452 42.754 6.28542 41.8593 5.97095H44.5874C43.7328 6.2451 43.3597 6.99499 43.3597 7.85374V16.2195L36.656 7.36994L36.636 14.3367Z" fill="black"/>
<path d="M49.7421 16.0542C51.2826 16.0542 53.3006 15.3648 54.0708 13.9013L53.4891 16.2235H46.0151C46.6811 15.9937 46.8255 15.3446 46.8255 14.6955V7.39413C46.8255 6.78938 46.657 6.20075 46.0151 5.97095H53.2364L53.7138 8.27303C52.9034 6.76519 51.403 6.14028 49.7581 6.14028H48.5105V10.9299C49.718 10.9299 50.9015 10.8896 51.3388 9.50673V12.4136C51.0058 11.4298 50.1312 11.0952 49.1524 11.0952H48.5065V16.0501H49.7341L49.7421 16.0542Z" fill="black"/>
<path d="M61.0235 16.2799C59.3907 16.2799 57.79 15.3446 57.79 13.5384C57.79 12.3087 58.5563 11.3532 59.6676 10.946C59.4068 10.567 59.2102 10.1558 59.2102 9.71636C59.2102 8.68022 60.1089 8.04321 61.0877 8.04321C61.8379 8.04321 62.7687 8.51895 62.7687 9.37367C62.7687 9.81715 62.4598 10.1115 62.0827 10.2606C62.1148 10.0953 62.1308 9.93407 62.1308 9.7849C62.1308 9.12773 61.8861 8.19238 61.0837 8.19238C60.4779 8.19238 60.1369 8.60362 60.1369 9.19224C60.1369 10.2768 63.2902 13.1151 64.1407 13.9053C64.3212 13.5948 64.4336 13.2481 64.4336 12.8691C64.4336 12.3289 64.0725 11.9338 63.6312 11.6556L65.95 11.9822C65.2319 12.1636 64.7264 13.5102 64.3333 14.0827C65.1998 14.8205 66.2269 15.9856 67.3542 16.2517H65.6572C64.8067 16.2517 64.237 15.5623 63.6312 15.0382C62.8971 15.8768 62.1469 16.288 61.0195 16.288M61.4608 15.9776C62.2271 15.9776 62.9813 15.4696 63.4226 14.8769C62.1669 13.6795 60.9714 12.4619 59.812 11.1516C59.3386 11.6758 59.1099 12.3652 59.1099 13.0707C59.1099 14.4334 59.9604 15.9776 61.4608 15.9776Z" fill="black"/>
<path d="M32.4593 23.9562C32.4593 21.1461 34.6257 19.7108 37.2093 19.7108C39.4278 19.7108 41.2492 21.7267 42.3364 23.8836C42.3364 23.8151 42.3283 23.7506 42.3283 23.682C42.3283 22.1984 42.9582 20.8639 43.9611 19.9205L43.9692 19.8157C43.5479 20.239 43.0705 20.4527 42.5971 20.4527C40.7477 20.4527 39.1109 19.3923 37.2654 19.3923C33.3058 19.3923 29.98 21.8839 29.98 26.0244C29.98 34.1926 44.2861 37.4301 44.2861 46.3965C44.2861 51.9118 41.2251 55.363 35.5765 55.363C29.9279 55.363 26.4416 51.0652 26.4416 45.7071C26.4416 40.8771 29.3462 36.6882 34.2566 35.9988L34.3088 35.7851C28.6601 35.7851 23.854 38.9702 23.854 45.1225C23.854 51.9118 29.2378 56 35.6808 56C43.0184 56 47.981 51.2789 47.981 43.8525C47.981 34.5152 32.4593 30.7496 32.4593 23.9562Z" fill="#1D1D1B"/>
<path d="M49.3331 29.9393C46.5007 29.9393 44.1899 27.617 44.1899 24.7747C44.1899 21.9324 46.5007 19.6101 49.3331 19.6101C52.1654 19.6101 54.4722 21.9324 54.4722 24.7747C54.4722 27.617 52.1614 29.9393 49.3331 29.9393ZM49.6019 29.7699C51.8284 29.7699 52.723 26.7986 52.723 25.0206C52.723 22.9524 51.5797 19.7714 49.1004 19.7714C46.9982 19.7714 46.0835 22.8032 46.0835 24.5207C46.0835 26.4438 47.2911 29.7699 49.6019 29.7699Z" fill="black"/>
<path d="M58.4281 28.3467C58.4281 28.9958 58.5725 29.6651 59.2384 29.8949H55.9287C56.6147 29.6651 56.7391 29.016 56.7391 28.3669V21.0655C56.7391 20.4608 56.5746 19.8721 55.9287 19.6423H63.15L63.6274 21.9444C62.817 20.4366 61.3166 19.8117 59.6717 19.8117H58.4241V24.6013C59.6115 24.6013 60.8191 24.4562 61.2564 23.1781V26.085C60.9435 25.1859 59.9646 24.7666 59.07 24.7666H58.4241V28.3427L58.4281 28.3467Z" fill="black"/>
<path d="M67.1854 28.3669C67.1854 29.016 67.3298 29.6651 67.9958 29.8949H64.686C65.3721 29.6651 65.5165 29.016 65.5165 28.3669V21.0655C65.5165 20.4164 65.352 19.8721 64.686 19.6423H67.9958C67.3298 19.8721 67.1854 20.4164 67.1854 21.0655V28.3669Z" fill="black"/>
</g>
<defs>
<clipPath id="clip0_106_1862">
<rect width="68" height="56" fill="white"/>
</clipPath>
</defs>
</svg>
