<svg width="112" height="92" viewBox="0 0 112 92" fill="none" xmlns="http://www.w3.org/2000/svg">
<g id="Logo" clip-path="url(#clip0_107_2609)">
<rect width="112" height="92" fill="none"/>
<path id="Vector" d="M35.7805 35.3362C39.5006 44.7217 42.6195 58.4919 55.1674 58.4919H56.5616L56.6277 59.088H55.1674C35.1858 59.088 30.2697 34.4685 24.2303 19.9565L17.061 42.1849L5.90726 14.5054C5.18041 12.7104 3.91835 10.6439 2.25322 9.6504H13.6052C12.0788 10.1803 11.4114 11.5778 11.4114 13.1145C11.4114 15.1081 17.92 30.4812 19.2415 33.6737L23.9528 19.2346C20.1137 10.5843 15.3364 0.397408 4.31481 0.397408C2.78844 0.397408 1.46029 0.529878 0.19823 0.867675L0 0.404032C1.65853 0.0662347 3.31705 0 4.97558 0C24.4946 0 30.4019 18.8968 35.5162 34.2698C36.5801 31.1436 42.3552 14.4392 42.3552 12.8429C42.3552 11.2467 41.2913 10.114 39.8971 9.6504H47.1986C45.3418 10.1803 43.2802 12.1806 42.6855 14.0418L35.7805 35.3362Z" fill="#1D1D1B"/>
<path id="Vector_2" d="M54.1698 24.1359C54.1698 25.2023 54.4077 26.2687 55.5046 26.6462H50.0532C51.1831 26.2687 51.421 25.2023 51.421 24.1359V12.1408C51.421 11.0744 51.1501 10.1803 50.0532 9.80273H55.5046C54.4077 10.1803 54.1698 11.0744 54.1698 12.1408V24.1359Z" fill="black"/>
<path id="Vector_3" d="M60.3412 23.5531C60.3412 25.103 61.2002 26.1296 62.6737 26.6462H57.9426C59.4161 26.1296 60.1033 25.0632 60.1033 23.5531V13.1079C60.1033 11.6308 59.4161 10.326 57.9426 9.80939H62.0196L71.1381 21.7714V12.9025C71.1381 11.3924 70.4179 10.326 68.9444 9.80939H73.4376C72.0302 10.2598 71.4157 11.4917 71.4157 12.9025V26.6462L60.3742 12.1077L60.3412 23.5531Z" fill="black"/>
<path id="Vector_4" d="M81.9286 26.3747C84.4659 26.3747 87.7896 25.2421 89.0582 22.8378L88.1001 26.6529H75.79C76.8869 26.2753 77.1248 25.209 77.1248 24.1426V12.1475C77.1248 11.154 76.8473 10.1869 75.79 9.80939H87.6838L88.4702 13.5914C87.1354 11.1142 84.6641 10.0876 81.955 10.0876H79.9V17.9563C81.8889 17.9563 83.8382 17.89 84.5584 15.6182V20.3937C84.01 18.7776 82.5695 18.2278 80.9572 18.2278H79.8934V26.3681H81.9154L81.9286 26.3747Z" fill="black"/>
<path id="Vector_5" d="M100.509 26.7456C97.8201 26.7456 95.1836 25.2089 95.1836 22.2416C95.1836 20.2214 96.4457 18.6517 98.276 17.9827C97.8465 17.3601 97.5227 16.6845 97.5227 15.9625C97.5227 14.2603 99.0028 13.2138 100.615 13.2138C101.851 13.2138 103.384 13.9954 103.384 15.3996C103.384 16.1281 102.875 16.6116 102.254 16.8567C102.307 16.5852 102.333 16.3202 102.333 16.0751C102.333 14.9955 101.93 13.4589 100.608 13.4589C99.6107 13.4589 99.0491 14.1345 99.0491 15.1015C99.0491 16.8832 104.243 21.5461 105.644 22.8443C105.941 22.3343 106.126 21.7647 106.126 21.1421C106.126 20.2546 105.531 19.6055 104.804 19.1484L108.624 19.6849C107.441 19.983 106.608 22.1952 105.961 23.1358C107.388 24.3479 109.08 26.262 110.936 26.6992H108.141C106.74 26.6992 105.802 25.5666 104.804 24.7055C103.595 26.0832 102.36 26.7588 100.503 26.7588M101.23 26.2488C102.492 26.2488 103.734 25.4142 104.461 24.4406C102.393 22.4734 100.423 20.4731 98.5139 18.3205C97.7341 19.1816 97.3575 20.3142 97.3575 21.4733C97.3575 23.712 98.7583 26.2488 101.23 26.2488Z" fill="black"/>
<path id="Vector_6" d="M53.4628 39.3567C53.4628 34.7401 57.0309 32.3821 61.2862 32.3821C64.9403 32.3821 67.9402 35.6939 69.7308 39.2374C69.7308 39.1248 69.7176 39.0189 69.7176 38.9063C69.7176 36.4688 70.755 34.2765 72.4069 32.7266L72.4202 32.5544C71.7264 33.2498 70.94 33.6009 70.1603 33.6009C67.1142 33.6009 64.4183 31.8589 61.3787 31.8589C54.857 31.8589 49.3792 35.9522 49.3792 42.7545C49.3792 56.1736 72.9422 61.4923 72.9422 76.2229C72.9422 85.2838 67.9005 90.9535 58.5969 90.9535C49.2933 90.9535 43.5513 83.8929 43.5513 75.0903C43.5513 67.1554 48.3352 60.2736 56.423 59.141L56.5089 58.7899C47.2053 58.7899 39.2893 64.0225 39.2893 74.1299C39.2893 85.2838 48.1568 92 58.7687 92C70.8541 92 79.0278 84.2439 79.0278 72.0435C79.0278 56.7035 53.4628 50.5172 53.4628 39.3567Z" fill="#1D1D1B"/>
<path id="Vector_7" d="M81.2545 49.1859C76.5895 49.1859 72.7834 45.3708 72.7834 40.7012C72.7834 36.0317 76.5895 32.2166 81.2545 32.2166C85.9195 32.2166 89.7189 36.0317 89.7189 40.7012C89.7189 45.3708 85.9129 49.1859 81.2545 49.1859ZM81.6972 48.9077C85.3644 48.9077 86.838 44.0262 86.838 41.1053C86.838 37.7074 84.9548 32.4815 80.8712 32.4815C77.4088 32.4815 75.9023 37.4623 75.9023 40.2839C75.9023 43.4433 77.8912 48.9077 81.6972 48.9077Z" fill="black"/>
<path id="Vector_8" d="M96.234 46.5696C96.234 47.636 96.4719 48.7355 97.5688 49.113H92.1174C93.2473 48.7355 93.4522 47.6691 93.4522 46.6027V34.6076C93.4522 33.6141 93.1813 32.6471 92.1174 32.2695H104.011L104.798 36.0515C103.463 33.5744 100.992 32.5477 98.2824 32.5477H96.2274V40.4164C98.1833 40.4164 100.172 40.178 100.892 38.0783V42.8538C100.377 41.3768 98.7647 40.688 97.2912 40.688H96.2274V46.563L96.234 46.5696Z" fill="black"/>
<path id="Vector_9" d="M110.659 46.6027C110.659 47.6691 110.896 48.7355 111.993 49.113H106.542C107.672 48.7355 107.91 47.6691 107.91 46.6027V34.6076C107.91 33.5412 107.639 32.6471 106.542 32.2695H111.993C110.896 32.6471 110.659 33.5412 110.659 34.6076V46.6027Z" fill="black"/>
</g>
<defs>
<clipPath id="clip0_107_2609">
<rect width="112" height="92" fill="none"/>
</clipPath>
</defs>
</svg>
